# xmcd CD database file
#
# Track frame offsets:
#	157
#	13082
#	29175
#	40670
#	52907
#	64247
#	77230
#	89827
#	103707
#	121252
#	133377
#	145572
#	160650
#	173612
#	185735
#	199395
#	210950
#	223995
#	234957
#	248985
#
# Disc length: 3520 seconds
#
# Revision: 0
# Processed by: cddbd v1.4PL0 Copyright (c) Steve Scherf et al.
# Submitted via: CDex 1.50beta9
#
DISCID=260dbe14
DTITLE=BIG TOM and MAINLINERS - 20 GOLDEN GREATS
DYEAR=1900
DGENRE=Country
TTITLE0=B.J.The D.J
TTITLE1=The Old Rustic Bridge
TTITLE2=I'll Settle For Old Old Ireland
TTITLE3=The Country Hall Of Fame
TTITLE4=The Sunset Years Of Life
TTITLE5=Be Careful Of Stones That You Throw
TTITLE6=Wedding Bells
TTITLE7=The Kentucy Waltz
TTITLE8=A Bunch Of Violets Blue
TTITLE9=The Carroll County Accident
TTITLE10=Gentle Mother
TTITLE11=The Cold Hard Facts Of Life
TTITLE12=Blue Eyes Crying In The Rain
TTITLE13=An Old Log Cabin For sale
TTITLE14=Flowers For Mama
TTITLE15=Give My Love To Rose
TTITLE16=The Isle Of InIshfree
TTITLE17=Tears On A Bridal Bouquet
TTITLE18=Sing Me Back Home
TTITLE19=My Own Washing
EXTD=
EXTT0=
EXTT1=
EXTT2=
EXTT3=
EXTT4=
EXTT5=
EXTT6=
EXTT7=
EXTT8=
EXTT9=
EXTT10=
EXTT11=
EXTT12=
EXTT13=
EXTT14=
EXTT15=
EXTT16=
EXTT17=
EXTT18=
EXTT19=
PLAYORDER=
